#!OML:ASF F:\VICON\USERDATA\INSTALL\Justin_Nancy\Justin_Nancy.ASF
:FULLY-SPECIFIED
:DEGREES
259
root 0.0266482 17.2528 28.3921 -1.42009 4.60332 -3.74996
lowerback 6.54673 -0.654023 1.31721
upperback -0.11796 -0.581243 4.81593
thorax -3.76343 -0.267231 4.32114
lowerneck -16.3808 -3.27997 -9.3459
upperneck 22.4329 -3.34489 5.19538
head 10.1093 -1.74235 2.94797
rclavicle -8.87077e-015 0
rhumerus -37.1586 -22.0584 -69.6128
rradius 24.0278
rwrist 12.9893
rhand -15.8061 12.2084
rfingers 7.12502
rthumb 10.3872 -17.5151
lclavicle -8.87077e-015 0
lhumerus -28.8613 0.743398 88.5803
lradius 31.2609
lwrist -5.43245
lhand -15.0854 25.1255
lfingers 7.12502
lthumb 11.0824 54.8129
rfemur -9.0663 5.23468 30.0788
rtibia 28.1827
rfoot -12.0542 -9.9702
rtoes 0.594228
lfemur -23.4331 -3.44369 -16.5134
ltibia 64.7778
lfoot -5.04228 0.345074
ltoes -11.457
260
root 0.0307623 17.2206 28.6116 -1.38312 4.49314 -3.85292
lowerback 6.52836 -0.540851 1.63588
upperback -0.160488 -0.408153 4.71241
thorax -3.8114 -0.187588 4.01513
lowerneck -16.1417 -3.38044 -9.3469
upperneck 22.3293 -3.52565 5.26973
head 10.0431 -1.81898 2.94956
rclavicle -1.07344e-014 3.18055e-014
rhumerus -36.2965 -21.3205 -70.3495
rradius 24.4987
rwrist 12.0245
rhand -15.8376 11.9973
rfingers 7.12502
rthumb 10.3568 -17.7276
lclavicle -1.07344e-014 3.18055e-014
lhumerus -29.5269 0.131886 88.7513
lradius 31.4715
lwrist -5.27648
lhand -14.4509 25.0568
lfingers 7.12502
lthumb 11.6943 54.7104
rfemur -8.23153 5.15388 30.3491
rtibia 28.1965
rfoot -12.8708 -10.031
rtoes 0.802599
lfemur -24.602 -3.19425 -16.5449
ltibia 63.889
lfoot -6.30167 1.09173
ltoes -14.3624
261
root 0.0327548 17.2025 28.8273 -1.29825 4.29796 -3.62276
lowerback 6.45591 -0.396624 1.56976
upperback -0.0452332 -0.23657 4.53731
thorax -3.66065 -0.104014 3.84873
lowerneck -16.3305 -3.467 -9.23956
upperneck 22.2431 -3.65147 5.25507
head 10.0557 -1.86581 2.9064
rclavicle 7.05686e-015 -3.73715e-014
rhumerus -34.9993 -20.623 -71.1851
rradius 24.8112
rwrist 11.3267
rhand -15.8819 12.3595
rfingers 7.12502
rthumb 10.3141 -17.3676
lclavicle 7.05686e-015 -3.73715e-014
lhumerus -29.8237 -0.47215 88.9715
lradius 31.5392
lwrist -4.8684
lhand -14.4265 25.2462
lfingers 7.12502
lthumb 11.7178 54.8984
rfemur -7.43433 5.2387 30.264
rtibia 28.1898
rfoot -13.5546 -10.1962
rtoes 0.815143
lfemur -25.7662 -3.07077 -16.9255
ltibia 62.7379
lfoot -7.30102 2.02916
ltoes -13.9774
262
root 0.0298719 17.1922 29.0486 -1.32775 3.9606 -3.68089
lowerback 6.21693 -0.209235 1.76484
upperback 0.220957 -0.000537111 4.41278
thorax -3.26286 0.00654744 3.57898
lowerneck -16.4735 -3.5188 -9.16693
upperneck 22.0447 -3.75408 5.37542
head 10.0203 -1.88874 2.91924
rclavicle -2.95692e-015 -4.37326e-014
rhumerus -33.7768 -20.0208 -72.0238
rradius 25.443
rwrist 10.7221
rhand -15.8085 13.0562
rfingers 7.12502
rthumb 10.3849 -16.6674
lclavicle -2.95692e-015 -4.37326e-014
lhumerus -29.9085 -1.09593 89.1135
lradius 31.4328
lwrist -4.45921
lhand -14.4438 25.4077
lfingers 7.12502
lthumb 11.7011 55.061
rfemur -6.50465 5.45231 30.5207
rtibia 28.0615
rfoot -14.2317 -10.3288
rtoes 0.721922
lfemur -26.7703 -2.79243 -16.9172
ltibia 61.4225
lfoot -8.14795 2.72921
ltoes -11.5088
263
root 0.0294198 17.1754 29.2678 -1.34797 3.59086 -3.95225
lowerback 6.24078 -0.0716266 2.1296
upperback 0.212272 0.209101 4.37203
thorax -3.2942 0.10506 3.31175
lowerneck -16.1491 -3.42543 -9.16387
upperneck 21.8838 -3.69996 5.57623
head 9.90002 -1.8434 2.99786
rclavicle -7.40473e-015 3.33958e-014
rhumerus -33.1579 -18.6732 -72.9166
rradius 26.5051
rwrist 9.58721
rhand -15.8312 12.7813
rfingers 7.12502
rthumb 10.363 -16.9433
lclavicle -7.40473e-015 3.33958e-014
lhumerus -30.5635 -1.24386 89.1268
lradius 31.4637
lwrist -4.36843
lhand -14.5711 23.7597
lfingers 7.12502
lthumb 11.5784 53.4198
rfemur -5.46695 5.62867 31.0068
rtibia 27.7337
rfoot -14.7869 -10.4522
rtoes 0.655637
lfemur -27.7349 -2.36645 -16.6747
ltibia 59.9136
lfoot -8.85446 3.27205
ltoes -10.0358
264
root 0.0335078 17.1581 29.4808 -1.21106 3.28026 -4.11951
lowerback 6.52883 0.0400383 2.44475
upperback -0.0543352 0.407474 4.31051
thorax -3.7387 0.198043 3.05565
lowerneck -15.9374 -3.36657 -9.15069
upperneck 22.0059 -3.66287 5.64747
head 9.901 -1.82143 3.02942
rclavicle 7.28049e-015 -8.74653e-015
rhumerus -32.7705 -17.1295 -73.6949
rradius 27.3856
rwrist 8.24372
rhand -15.8583 12.4004
rfingers 7.12502
rthumb 10.3368 -17.3256
lclavicle 7.28049e-015 -8.74653e-015
lhumerus -31.5678 -1.3583 89.1836
lradius 31.6653
lwrist -4.3889
lhand -14.4403 22.3093
lfingers 7.12502
lthumb 11.7045 51.9623
rfemur -4.44867 5.82367 31.3342
rtibia 27.151
rfoot -15.1666 -10.5322
rtoes 1.62562
lfemur -28.8264 -2.01924 -16.5733
ltibia 58.2356
lfoot -9.51053 3.75407
ltoes -9.6181
265
root 0.0336245 17.1471 29.7005 -1.15502 3.02683 -4.12161
lowerback 6.64741 0.167273 2.53551
upperback -0.0614317 0.588724 4.25832
thorax -3.81774 0.285695 2.93272
lowerneck -16.1888 -3.49139 -9.12975
upperneck 22.1038 -3.79639 5.54101
head 9.99274 -1.8908 2.96931
rclavicle -8.69683e-016 3.18055e-015
rhumerus -31.9762 -15.1059 -74.6318
rradius 28.338
rwrist 6.45315
rhand -15.9276 11.9822
rfingers 7.12502
rthumb 10.27 -17.7471
lclavicle -8.69683e-016 3.18055e-015
lhumerus -32.0679 -1.67842 89.3638
lradius 31.6244
lwrist -4.35437
lhand -13.931 23.4549
lfingers 7.12502
lthumb 12.1957 53.0794
rfemur -3.25881 5.95473 31.4987
rtibia 26.457
rfoot -15.3249 -10.552
rtoes 2.74707
lfemur -29.6818 -1.75754 -16.6222
ltibia 56.3544
lfoot -10.0403 4.1686
ltoes -10.1011
266
root 0.0322151 17.128 29.9224 -1.29083 2.83628 -4.62711
lowerback 6.60175 0.275446 3.11525
upperback 0.247829 0.761447 4.35049
thorax -3.47073 0.363456 2.68382
lowerneck -16.5931 -3.64223 -9.25263
upperneck 21.9163 -3.95734 5.65412
head 10.021 -1.9545 3.00217
rclavicle -1.46604e-015 -4.77083e-015
rhumerus -30.925 -13.7601 -75.3849
rradius 29.5091
rwrist 5.25581
rhand -15.8458 11.4765
rfingers 7.12502
rthumb 10.3489 -18.2488
lclavicle -1.46604e-015 -4.77083e-015
lhumerus -32.049 -1.94674 89.5268
lradius 31.4097
lwrist -4.45824
lhand -13.4697 24.7654
lfingers 7.12502
lthumb 12.6404 54.3629
rfemur -1.83851 6.08282 32.2558
rtibia 25.7058
rfoot -15.3837 -10.7751
rtoes 2.32517
lfemur -30.3567 -1.58324 -16.0766
ltibia 54.3461
lfoot -10.2972 4.46167
ltoes -10.4662
267
root 0.0355894 17.1013 30.1486 -1.28735 2.65097 -5.03716
lowerback 6.5892 0.397253 3.62579
upperback 0.380597 0.956376 4.43165
thorax -3.32414 0.454208 2.46286
lowerneck -16.9564 -3.72819 -9.57766
upperneck 21.8999 -4.02904 5.96647
head 10.1041 -1.97315 3.1556
rclavicle -6.65929e-015 -3.97569e-015
rhumerus -30.0398 -12.7461 -75.7727
rradius 30.438
rwrist 4.64363
rhand -15.8027 11.0098
rfingers 7.12502
rthumb 10.3905 -18.7134
lclavicle -6.65929e-015 -3.97569e-015
lhumerus -32.2391 -1.91466 89.6825
lradius 31.1487
lwrist -4.7294
lhand -13.4169 24.3892
lfingers 7.12502
lthumb 12.6913 53.9835
rfemur -0.532222 6.01074 32.8448
rtibia 24.8955
rfoot -15.4902 -10.8943
rtoes 1.06749
lfemur -31.0467 -1.41267 -15.6654
ltibia 52.1659
lfoot -10.4782 4.72708
ltoes -11.3958
268
root 0.0411063 17.0809 30.379 -1.07224 2.48339 -5.0123
lowerback 6.50846 0.52325 3.7431
upperback 0.311473 1.12827 4.34295
thorax -3.34932 0.5367 2.28912
lowerneck -17.1556 -3.75531 -9.57075
upperneck 21.9952 -4.04091 5.92253
head 10.1761 -1.98088 3.1371
rclavicle 3.52843e-015 2.22639e-014
rhumerus -29.2612 -11.6921 -76.161
rradius 31.1296
rwrist 3.96855
rhand -15.8893 10.4642
rfingers 7.12502
rthumb 10.307 -19.2633
lclavicle 3.52843e-015 2.22639e-014
lhumerus -32.7367 -1.98403 89.8116
lradius 30.9376
lwrist -4.74682
lhand -13.5648 24.0689
lfingers 7.12502
lthumb 12.5487 53.6721
rfemur 0.597655 5.92714 32.8931
rtibia 24.0454
rfoot -15.6817 -10.8309
rtoes 0.258784
lfemur -31.7716 -1.48004 -15.7082
ltibia 49.7997
lfoot -10.4571 4.91821
ltoes -12.0239
269
root 0.0432906 17.061 30.5967 -0.870337 2.32431 -5.35144
lowerback 6.48416 0.612477 4.14853
upperback 0.242754 1.28068 4.37658
thorax -3.4014 0.605468 2.08328
lowerneck -17.0257 -3.73334 -9.44151
upperneck 21.7992 -4.02199 5.80246
head 10.074 -1.97502 3.07287
rclavicle 2.68359e-015 -7.95139e-015
rhumerus -28.5646 -10.5787 -76.5383
rradius 32.0205
rwrist 3.32213
rhand -15.9791 10.1709
rfingers 7.12502
rthumb 10.2203 -19.5608
lclavicle 2.68359e-015 -7.95139e-015
lhumerus -33.054 -2.12449 89.9319
lradius 30.5991
lwrist -4.75471
lhand -13.492 24.1224
lfingers 7.12502
lthumb 12.6189 53.7212
rfemur 1.57926 5.96706 33.3621
rtibia 23.2728
rfoot -15.8222 -10.7718
rtoes 0.71197
lfemur -32.5047 -1.68435 -15.2497
ltibia 47.2688
lfoot -9.82476 5.0477
ltoes -11.267
270
root 0.0442692 17.0388 30.8133 -0.775541 2.05377 -5.69654
lowerback 6.67747 0.703377 4.5309
upperback 0.0476538 1.45869 4.40458
thorax -3.70605 0.682683 1.88005
lowerneck -16.5775 -3.68055 -9.32611
upperneck 21.6998 -4.00557 5.7421
head 9.9485 -1.97053 3.03609
rclavicle -2.62893e-014 -1.27222e-014
rhumerus -28.1836 -9.27412 -76.877
rradius 32.985
rwrist 2.82043
rhand -15.8052 9.16104
rfingers 7.12502
rthumb 10.388 -20.5624
lclavicle -2.62893e-014 -1.27222e-014
lhumerus -33.7076 -2.02554 89.9358
lradius 30.3812
lwrist -4.86269
lhand -13.1857 24.2732
lfingers 7.12502
lthumb 12.9142 53.8536
rfemur 2.68288 6.1196 33.8562
rtibia 22.48
rfoot -16.058 -10.6107
rtoes 2.39658
lfemur -32.9295 -1.93143 -14.7113
ltibia 44.5827
lfoot -9.35745 5.34233
ltoes -9.57776
271
root 0.0501648 17.0101 31.038 -0.599408 1.85919 -5.68392
lowerback 6.78792 0.813177 4.65905
upperback -0.209446 1.63592 4.29421
thorax -4.02949 0.76079 1.67455
lowerneck -16.119 -3.70697 -9.42799
upperneck 21.6089 -4.09085 5.8798
head 9.84247 -2.00899 3.09249
rclavicle 4.72114e-015 3.81667e-014
rhumerus -27.8415 -8.44816 -77.0867
rradius 33.7591
rwrist 2.68174
rhand -15.7675 9.23421
rfingers 7.12502
rthumb 10.4245 -20.4874
lclavicle 4.72114e-015 3.81667e-014
lhumerus -34.7533 -1.96867 89.9834
lradius 30.4044
lwrist -4.82888
lhand -13.3948 25.1564
lfingers 7.12502
lthumb 12.7126 54.7495
rfemur 3.84831 5.95645 33.911
rtibia 21.6075
rfoot -16.3692 -10.5421
rtoes 2.4691
lfemur -33.2238 -2.29594 -14.5543
ltibia 41.7886
lfoot -9.20378 5.58006
ltoes -8.46795
